<?xml version="1.0" standalone="no"?>
<!DOCTYPE svg PUBLIC "-//W3C//DTD SVG 20010904//EN"
 "http://www.w3.org/TR/2001/REC-SVG-20010904/DTD/svg10.dtd">
<svg version="1.0" xmlns="http://www.w3.org/2000/svg"
 width="612.000000pt" height="408.000000pt" viewBox="0 0 612.000000 408.000000"
 preserveAspectRatio="xMidYMid meet">

<g transform="translate(0.000000,408.000000) scale(0.100000,-0.100000)"
fill="#000000" stroke="none">
<path d="M1194 2470 c-51 -20 -54 -36 -54 -302 l0 -248 25 0 25 0 1 223 c1
122 1 226 0 231 -1 5 6 17 15 27 16 18 39 19 414 19 295 0 399 -3 408 -12 9
-9 12 -78 12 -250 l0 -238 30 0 30 0 0 239 c0 132 -4 251 -10 265 -20 55 -33
56 -472 55 -222 0 -413 -4 -424 -9z"/>
<path d="M1817 2262 c-10 -10 -17 -27 -17 -38 0 -11 -29 -48 -64 -83 -50 -50
-68 -62 -84 -56 -12 3 -31 1 -43 -6 -18 -9 -31 -7 -80 16 -32 16 -60 36 -62
46 -3 10 -17 24 -31 30 -36 17 -76 -10 -76 -50 0 -40 22 -55 71 -48 49 6 144
-33 154 -64 4 -11 18 -25 32 -30 33 -12 73 12 73 44 0 15 24 46 68 89 52 53
72 66 88 62 51 -13 88 38 60 81 -20 30 -65 33 -89 7z m58 -37 c0 -28 -29 -25
-33 3 -3 19 0 23 15 20 10 -2 18 -12 18 -23z m-437 -104 c-2 -9 -11 -17 -21
-19 -21 -4 -35 27 -17 38 19 12 42 0 38 -19z m220 -88 c5 -17 -26 -29 -40 -15
-6 6 -7 15 -3 22 9 14 37 9 43 -7z"/>
<path d="M1070 1870 c0 -6 7 -25 16 -41 29 -58 39 -59 530 -59 392 0 450 2
480 16 32 15 64 57 64 84 0 6 -68 10 -205 10 -194 0 -205 -1 -215 -20 -10 -18
-21 -20 -125 -20 -104 0 -115 2 -125 20 -10 19 -21 20 -215 20 -137 0 -205 -4
-205 -10z"/>
</g>
</svg>
